M48
; DRILL file {KiCad (6.0.8)} date Tue Nov 14 22:21:57 2023
; FORMAT={-:-/ absolute / inch / decimal}
; #@! TF.CreationDate,2023-11-14T22:21:57+13:00
; #@! TF.GenerationSoftware,Kicad,Pcbnew,(6.0.8)
; #@! TF.FileFunction,Plated,1,4,PTH
FMAT,2
INCH
; #@! TA.AperFunction,Plated,PTH,ViaDrill
T1C0.0157
; #@! TA.AperFunction,Plated,PTH,ComponentDrill
T2C0.0315
; #@! TA.AperFunction,Plated,PTH,ComponentDrill
T3C0.0394
; #@! TA.AperFunction,Plated,PTH,ComponentDrill
T4C0.0472
; #@! TA.AperFunction,Plated,PTH,ComponentDrill
T5C0.0551
%
G90
G05
T1
X3.96Y-5.245
X3.975Y-2.655
X3.975Y-5.865
X3.98Y-4.61
X3.985Y-3.635
X4.04Y-5.35
X4.05Y-4.44
X4.115Y-5.175
X4.155Y-4.335
X4.165Y-4.545
X4.195Y-4.695
X4.23Y-4.73
X4.23Y-4.89
X4.25Y-4.455
X4.255Y-4.025
X4.315Y-2.795
X4.335Y-4.12
X4.37Y-3.285
X4.395Y-2.685
X4.4Y-2.925
X4.44Y-3.36
X4.475Y-2.81
X4.58Y-3.345
X4.595Y-3.67
X4.6329Y-3.6821
X4.645Y-2.945
X4.645Y-3.315
X4.66Y-5.32
X4.665Y-3.485
X4.7Y-5.735
X4.715Y-3.14
X4.7198Y-4.1252
X4.725Y-2.95
X4.745Y-3.49
X4.78Y-2.945
X4.785Y-3.66
X4.785Y-3.695
X4.785Y-3.735
X4.79Y-5.59
X4.795Y-3.49
X4.795Y-5.865
X4.835Y-3.16
X4.84Y-4.32
X4.845Y-3.215
X4.86Y-4.81
X4.865Y-4.665
X4.885Y-4.225
X4.895Y-5.745
X4.91Y-4.88
X4.915Y-4.73
X4.915Y-5.005
X4.93Y-3.825
X4.9342Y-4.1658
X4.935Y-3.275
X4.955Y-4.35
X4.9648Y-4.7698
X4.965Y-4.935
X4.9786Y-4.1214
X4.9786Y-4.1714
X4.985Y-4.725
X4.99Y-4.8
X5.025Y-5.175
X5.06Y-4.005
X5.075Y-5.385
X5.102Y-4.6198
X5.105Y-4.095
X5.11Y-4.295
X5.115Y-3.8
X5.1256Y-4.8594
X5.15Y-5.09
X5.165Y-4.9
X5.1662Y-3.7112
X5.19Y-3.8
X5.19Y-4.6698
X5.2043Y-4.8057
X5.21Y-3.47
X5.21Y-4.945
X5.22Y-5.35
X5.255Y-4.665
X5.28Y-3.515
X5.31Y-4.93
X5.33Y-4.82
X5.355Y-4.54
X5.37Y-5.095
X5.38Y-3.785
X5.415Y-3.61
X5.42Y-3.325
X5.425Y-5.44
X5.4345Y-5.0962
X5.4475Y-5.1958
X5.45Y-5.06
X5.455Y-3.425
X5.46Y-3.78
X5.475Y-3.66
X5.535Y-3.61
X5.565Y-4.135
X5.585Y-5.155
X5.635Y-2.87
X5.635Y-3.895
X5.635Y-5.855
X5.7Y-3.1
X5.73Y-4.745
X5.745Y-4.025
X5.755Y-3.1
X5.81Y-3.805
X5.855Y-5.24
X5.9Y-3.67
X5.97Y-3.535
X6.025Y-2.655
X6.19Y-5.225
X6.26Y-5.285
X6.265Y-5.18
X6.31Y-3.475
X6.33Y-5.74
X6.345Y-3.805
X6.35Y-4.005
X6.375Y-5.455
X6.395Y-3.47
X6.42Y-5.625
X6.425Y-5.4
X6.43Y-2.655
X6.435Y-5.855
X6.47Y-5.455
X6.525Y-5.74
X6.59Y-5.165
X6.59Y-5.29
X6.615Y-3.47
X6.65Y-5.225
X6.92Y-3.475
X6.945Y-2.655
X6.985Y-4.965
X6.99Y-5.225
X7.005Y-4.825
X7.01Y-3.47
X7.05Y-5.165
X7.05Y-5.29
X7.085Y-4.82
X7.1Y-4.965
X7.12Y-5.745
X7.165Y-3.275
X7.17Y-5.455
X7.21Y-5.4
X7.21Y-5.625
X7.21Y-5.85
X7.25Y-5.455
X7.29Y-5.745
X7.375Y-5.125
X7.385Y-5.295
X7.44Y-5.225
X7.445Y-2.66
X7.455Y-4.035
X7.455Y-4.785
X7.52Y-3.47
X7.585Y-3.475
X7.81Y-4.135
X7.825Y-3.46
X7.825Y-5.345
X7.83Y-2.645
X7.83Y-3.005
X7.83Y-4.74
X7.835Y-5.865
T2
X5.0921Y-3.0479
X5.0921Y-3.2479
X5.1921Y-3.0479
X5.1921Y-3.2479
X5.2921Y-3.0479
X5.2921Y-3.2479
X5.4921Y-3.0479
X5.4921Y-3.2479
X5.6279Y-3.1279
X5.6279Y-3.3279
X5.6279Y-3.4279
X5.6279Y-3.5279
X5.8279Y-3.1279
X5.8279Y-3.3279
X5.8279Y-3.4279
X5.8279Y-3.5279
X6.0471Y-3.0479
X6.0471Y-3.2479
X6.1471Y-3.0479
X6.1471Y-3.2479
X6.2471Y-3.0479
X6.2471Y-3.2479
X6.4471Y-3.0479
X6.4471Y-3.2479
X6.6671Y-3.0429
X6.6671Y-3.2429
X6.7671Y-3.0429
X6.7671Y-3.2429
X6.8671Y-3.0429
X6.8671Y-3.2429
X7.0671Y-3.0429
X7.0671Y-3.2429
X7.2871Y-3.0379
X7.2871Y-3.2379
X7.3871Y-3.0379
X7.3871Y-3.2379
X7.4871Y-3.0379
X7.4871Y-3.2379
X7.6871Y-3.0379
X7.6871Y-3.2379
T3
X5.7446Y-4.911
X5.7454Y-3.904
X5.8446Y-4.911
X5.8454Y-3.904
X5.9446Y-4.911
X5.9454Y-3.904
X6.0446Y-4.911
X6.0454Y-3.904
X6.1446Y-4.911
X6.1454Y-3.904
X6.2446Y-4.911
X6.2454Y-3.904
X6.3446Y-4.911
X6.3454Y-3.904
X6.4446Y-4.911
X6.4454Y-3.904
X6.5446Y-4.911
X6.5454Y-3.904
X6.6446Y-4.911
X6.6454Y-3.904
X6.7446Y-4.911
X6.7454Y-3.904
X6.8446Y-4.911
X6.8454Y-3.904
X6.9446Y-4.911
X6.9454Y-3.904
X7.0446Y-4.911
X7.0454Y-3.904
X7.1446Y-4.911
X7.1454Y-3.904
X7.2446Y-4.911
X7.2454Y-3.904
X7.3446Y-4.911
X7.3454Y-3.904
X7.4446Y-4.911
X7.4454Y-3.904
X7.5446Y-4.911
X7.5454Y-3.904
T4
X4.1581Y-4.44
X4.355Y-4.44
T5
X4.1987Y-5.7298
X4.205Y-2.8
X4.3956Y-5.7298
X4.4019Y-2.8
X4.5987Y-2.8
X4.5987Y-5.7298
X4.7956Y-2.8
X4.7956Y-5.7298
X5.0Y-2.8
X5.1969Y-2.8
X5.3937Y-2.8
X6.0331Y-2.7984
X6.2297Y-5.7384
X6.23Y-2.7984
X6.4266Y-5.7384
X6.4269Y-2.7984
X6.6231Y-2.7984
X6.6234Y-5.7384
X6.82Y-2.7984
X6.8203Y-5.7384
X7.0147Y-5.7384
X7.0169Y-2.7984
X7.2116Y-5.7384
X7.2131Y-2.7984
X7.4084Y-5.7384
X7.41Y-2.7984
X7.6053Y-5.7384
X7.6069Y-2.7984
T0
M30
