%TF.GenerationSoftware,KiCad,Pcbnew,(6.0.8)*%
%TF.CreationDate,2023-11-14T22:22:02+13:00*%
%TF.ProjectId,Brain,42726169-6e2e-46b6-9963-61645f706362,rev?*%
%TF.SameCoordinates,Original*%
%TF.FileFunction,Paste,Top*%
%TF.FilePolarity,Positive*%
%FSLAX46Y46*%
G04 Gerber Fmt 4.6, Leading zero omitted, Abs format (unit mm)*
G04 Created by KiCad (PCBNEW (6.0.8)) date 2023-11-14 22:22:02*
%MOMM*%
%LPD*%
G01*
G04 APERTURE LIST*
G04 Aperture macros list*
%AMRoundRect*
0 Rectangle with rounded corners*
0 $1 Rounding radius*
0 $2 $3 $4 $5 $6 $7 $8 $9 X,Y pos of 4 corners*
0 Add a 4 corners polygon primitive as box body*
4,1,4,$2,$3,$4,$5,$6,$7,$8,$9,$2,$3,0*
0 Add four circle primitives for the rounded corners*
1,1,$1+$1,$2,$3*
1,1,$1+$1,$4,$5*
1,1,$1+$1,$6,$7*
1,1,$1+$1,$8,$9*
0 Add four rect primitives between the rounded corners*
20,1,$1+$1,$2,$3,$4,$5,0*
20,1,$1+$1,$4,$5,$6,$7,0*
20,1,$1+$1,$6,$7,$8,$9,0*
20,1,$1+$1,$8,$9,$2,$3,0*%
G04 Aperture macros list end*
%ADD10RoundRect,0.150000X-0.725000X-0.150000X0.725000X-0.150000X0.725000X0.150000X-0.725000X0.150000X0*%
%ADD11RoundRect,0.150000X-0.512500X-0.150000X0.512500X-0.150000X0.512500X0.150000X-0.512500X0.150000X0*%
%ADD12R,0.700000X0.510000*%
%ADD13R,0.203200X0.812800*%
%ADD14R,0.250012X1.699997*%
%ADD15R,0.812800X0.254000*%
%ADD16R,0.812800X0.203200*%
%ADD17RoundRect,0.150000X0.150000X-0.825000X0.150000X0.825000X-0.150000X0.825000X-0.150000X-0.825000X0*%
%ADD18RoundRect,0.250000X-0.400000X-0.625000X0.400000X-0.625000X0.400000X0.625000X-0.400000X0.625000X0*%
%ADD19RoundRect,0.237500X-0.237500X0.250000X-0.237500X-0.250000X0.237500X-0.250000X0.237500X0.250000X0*%
%ADD20RoundRect,0.237500X0.237500X-0.250000X0.237500X0.250000X-0.237500X0.250000X-0.237500X-0.250000X0*%
%ADD21RoundRect,0.237500X0.250000X0.237500X-0.250000X0.237500X-0.250000X-0.237500X0.250000X-0.237500X0*%
%ADD22RoundRect,0.237500X-0.250000X-0.237500X0.250000X-0.237500X0.250000X0.237500X-0.250000X0.237500X0*%
%ADD23RoundRect,0.150000X-0.587500X-0.150000X0.587500X-0.150000X0.587500X0.150000X-0.587500X0.150000X0*%
%ADD24R,2.800000X2.000000*%
%ADD25R,1.250000X2.000000*%
%ADD26RoundRect,0.250000X-1.075000X0.375000X-1.075000X-0.375000X1.075000X-0.375000X1.075000X0.375000X0*%
%ADD27RoundRect,0.250000X1.075000X-0.375000X1.075000X0.375000X-1.075000X0.375000X-1.075000X-0.375000X0*%
%ADD28R,1.200000X0.900000*%
%ADD29R,0.900000X1.200000*%
%ADD30R,0.500000X0.600000*%
%ADD31RoundRect,0.237500X-0.287500X-0.237500X0.287500X-0.237500X0.287500X0.237500X-0.287500X0.237500X0*%
%ADD32R,1.012800X1.905000*%
%ADD33R,1.800000X2.500000*%
%ADD34R,2.500000X1.800000*%
%ADD35RoundRect,0.150000X0.150000X-0.587500X0.150000X0.587500X-0.150000X0.587500X-0.150000X-0.587500X0*%
%ADD36RoundRect,0.237500X-0.237500X0.300000X-0.237500X-0.300000X0.237500X-0.300000X0.237500X0.300000X0*%
%ADD37RoundRect,0.225000X0.225000X0.250000X-0.225000X0.250000X-0.225000X-0.250000X0.225000X-0.250000X0*%
%ADD38RoundRect,0.250000X-1.825000X-0.700000X1.825000X-0.700000X1.825000X0.700000X-1.825000X0.700000X0*%
%ADD39RoundRect,0.225000X0.250000X-0.225000X0.250000X0.225000X-0.250000X0.225000X-0.250000X-0.225000X0*%
%ADD40RoundRect,0.225000X-0.225000X-0.250000X0.225000X-0.250000X0.225000X0.250000X-0.225000X0.250000X0*%
%ADD41RoundRect,0.250000X-0.250000X-0.475000X0.250000X-0.475000X0.250000X0.475000X-0.250000X0.475000X0*%
%ADD42R,2.200000X1.600000*%
%ADD43RoundRect,0.225000X-0.250000X0.225000X-0.250000X-0.225000X0.250000X-0.225000X0.250000X0.225000X0*%
G04 APERTURE END LIST*
D10*
%TO.C,Q1*%
X126457000Y-104009000D03*
X126457000Y-105279000D03*
X126457000Y-106549000D03*
X126457000Y-107819000D03*
X131607000Y-107819000D03*
X131607000Y-106549000D03*
X131607000Y-105279000D03*
X131607000Y-104009000D03*
%TD*%
D11*
%TO.C,U5*%
X122941500Y-93030000D03*
X122941500Y-93980000D03*
X122941500Y-94930000D03*
X125216500Y-94930000D03*
X125216500Y-93030000D03*
%TD*%
D12*
%TO.C,U4*%
X132063000Y-93144000D03*
X132063000Y-94094000D03*
X132063000Y-95044000D03*
X134383000Y-95044000D03*
X134383000Y-93144000D03*
%TD*%
D13*
%TO.C,U3*%
X129616000Y-121738000D03*
X130016000Y-121738000D03*
X129216000Y-121738000D03*
D14*
X129966000Y-119388000D03*
X128866000Y-119388000D03*
D13*
X128816000Y-121738000D03*
D14*
X129416000Y-119388000D03*
D15*
X128016000Y-121488000D03*
X128016000Y-119188000D03*
X130816000Y-121488000D03*
X130816000Y-119188000D03*
D16*
X128016000Y-120937999D03*
X128016000Y-120538000D03*
X128016000Y-120138000D03*
X128016000Y-119738001D03*
X130816000Y-120937999D03*
X130816000Y-120538000D03*
X130816000Y-120138000D03*
X130816000Y-119738001D03*
%TD*%
D11*
%TO.C,U2*%
X110109000Y-101285000D03*
X110109000Y-102235000D03*
X110109000Y-103185000D03*
X112384000Y-103185000D03*
X112384000Y-102235000D03*
X112384000Y-101285000D03*
%TD*%
D17*
%TO.C,U1*%
X117983000Y-86906500D03*
X119253000Y-86906500D03*
X120523000Y-86906500D03*
X121793000Y-86906500D03*
X121793000Y-81956500D03*
X120523000Y-81956500D03*
X119253000Y-81956500D03*
X117983000Y-81956500D03*
%TD*%
D18*
%TO.C,RV1*%
X112522000Y-136652000D03*
X109422000Y-136652000D03*
%TD*%
D19*
%TO.C,R49*%
X190881000Y-84812500D03*
X190881000Y-86637500D03*
%TD*%
%TO.C,R48*%
X160274000Y-84939500D03*
X160274000Y-86764500D03*
%TD*%
D20*
%TO.C,R47*%
X189230000Y-86637500D03*
X189230000Y-84812500D03*
%TD*%
%TO.C,R46*%
X158623000Y-86764500D03*
X158623000Y-84939500D03*
%TD*%
D19*
%TO.C,R45*%
X143764000Y-75438000D03*
X143764000Y-77263000D03*
%TD*%
D20*
%TO.C,R44*%
X142113000Y-77239500D03*
X142113000Y-75414500D03*
%TD*%
D19*
%TO.C,R43*%
X133985000Y-84939500D03*
X133985000Y-86764500D03*
%TD*%
%TO.C,R42*%
X175768000Y-84916000D03*
X175768000Y-86741000D03*
%TD*%
D20*
%TO.C,R41*%
X132334000Y-86764500D03*
X132334000Y-84939500D03*
%TD*%
%TO.C,R40*%
X173990000Y-86764500D03*
X173990000Y-84939500D03*
%TD*%
D21*
%TO.C,R39*%
X187475500Y-132715000D03*
X185650500Y-132715000D03*
%TD*%
%TO.C,R38*%
X167409500Y-132715000D03*
X165584500Y-132715000D03*
%TD*%
D22*
%TO.C,R37*%
X179046500Y-132842000D03*
X180871500Y-132842000D03*
%TD*%
%TO.C,R36*%
X159107500Y-132715000D03*
X160932500Y-132715000D03*
%TD*%
D20*
%TO.C,R35*%
X180848000Y-136294500D03*
X180848000Y-134469500D03*
%TD*%
%TO.C,R34*%
X185674000Y-136167500D03*
X185674000Y-134342500D03*
%TD*%
%TO.C,R33*%
X160909000Y-136167500D03*
X160909000Y-134342500D03*
%TD*%
%TO.C,R32*%
X165608000Y-136167500D03*
X165608000Y-134342500D03*
%TD*%
%TO.C,R31*%
X180848000Y-139700000D03*
X180848000Y-137875000D03*
%TD*%
%TO.C,R30*%
X185674000Y-139596500D03*
X185674000Y-137771500D03*
%TD*%
%TO.C,R29*%
X160909000Y-139596500D03*
X160909000Y-137771500D03*
%TD*%
%TO.C,R28*%
X165608000Y-139573000D03*
X165608000Y-137748000D03*
%TD*%
D19*
%TO.C,R27*%
X112235000Y-122019500D03*
X112235000Y-123844500D03*
%TD*%
D22*
%TO.C,R26*%
X131468500Y-136779000D03*
X129643500Y-136779000D03*
%TD*%
%TO.C,R25*%
X128039500Y-136779000D03*
X126214500Y-136779000D03*
%TD*%
%TO.C,R24*%
X137771500Y-125730000D03*
X139596500Y-125730000D03*
%TD*%
%TO.C,R23*%
X137771500Y-119634000D03*
X139596500Y-119634000D03*
%TD*%
%TO.C,R22*%
X139596500Y-127254000D03*
X137771500Y-127254000D03*
%TD*%
D19*
%TO.C,R21*%
X136144000Y-127150500D03*
X136144000Y-125325500D03*
%TD*%
D22*
%TO.C,R20*%
X148867500Y-130048000D03*
X147042500Y-130048000D03*
%TD*%
D21*
%TO.C,R19*%
X119882500Y-105664000D03*
X118057500Y-105664000D03*
%TD*%
D22*
%TO.C,R18*%
X118057500Y-104140000D03*
X119882500Y-104140000D03*
%TD*%
%TO.C,R17*%
X118057500Y-102616000D03*
X119882500Y-102616000D03*
%TD*%
%TO.C,R16*%
X139596500Y-124206000D03*
X137771500Y-124206000D03*
%TD*%
%TO.C,R15*%
X139596500Y-121154000D03*
X137771500Y-121154000D03*
%TD*%
D21*
%TO.C,R14*%
X113688500Y-104775000D03*
X111863500Y-104775000D03*
%TD*%
D19*
%TO.C,R13*%
X134620000Y-136802500D03*
X134620000Y-134977500D03*
%TD*%
D21*
%TO.C,R12*%
X147042500Y-131826000D03*
X148867500Y-131826000D03*
%TD*%
D20*
%TO.C,R11*%
X136144000Y-134977500D03*
X136144000Y-136802500D03*
%TD*%
D19*
%TO.C,R10*%
X137668000Y-136779000D03*
X137668000Y-134954000D03*
%TD*%
%TO.C,R9*%
X139192000Y-136802500D03*
X139192000Y-134977500D03*
%TD*%
D20*
%TO.C,R8*%
X124460000Y-105810500D03*
X124460000Y-103985500D03*
%TD*%
D21*
%TO.C,R7*%
X122531500Y-102358000D03*
X124356500Y-102358000D03*
%TD*%
D22*
%TO.C,R6*%
X139596500Y-118110000D03*
X137771500Y-118110000D03*
%TD*%
D21*
%TO.C,R5*%
X137771500Y-116586000D03*
X139596500Y-116586000D03*
%TD*%
D20*
%TO.C,R4*%
X122428000Y-78740000D03*
X122428000Y-76915000D03*
%TD*%
%TO.C,R3*%
X117348000Y-78740000D03*
X117348000Y-76915000D03*
%TD*%
D19*
%TO.C,R2*%
X123571000Y-83138000D03*
X123571000Y-84963000D03*
%TD*%
D20*
%TO.C,R1*%
X114554000Y-83947000D03*
X114554000Y-82122000D03*
%TD*%
D23*
%TO.C,Q7*%
X192737500Y-84775000D03*
X192737500Y-86675000D03*
X194612500Y-85725000D03*
%TD*%
%TO.C,Q6*%
X162257500Y-84902000D03*
X162257500Y-86802000D03*
X164132500Y-85852000D03*
%TD*%
%TO.C,Q5*%
X145620500Y-75377000D03*
X145620500Y-77277000D03*
X147495500Y-76327000D03*
%TD*%
%TO.C,Q4*%
X135841500Y-84902000D03*
X135841500Y-86802000D03*
X137716500Y-85852000D03*
%TD*%
%TO.C,Q3*%
X177751500Y-84902000D03*
X177751500Y-86802000D03*
X179626500Y-85852000D03*
%TD*%
D10*
%TO.C,Q2*%
X114232000Y-128393000D03*
X114232000Y-129663000D03*
X114232000Y-130933000D03*
X114232000Y-132203000D03*
X119382000Y-132203000D03*
X119382000Y-130933000D03*
X119382000Y-129663000D03*
X119382000Y-128393000D03*
%TD*%
D24*
%TO.C,L2*%
X119888000Y-122680000D03*
X119788000Y-116580000D03*
%TD*%
D25*
%TO.C,L1*%
X115057000Y-100230000D03*
X117607000Y-100330000D03*
%TD*%
D26*
%TO.C,F2*%
X116807000Y-136518000D03*
X116807000Y-139318000D03*
%TD*%
D27*
%TO.C,F1*%
X106680000Y-139195000D03*
X106680000Y-136395000D03*
%TD*%
D28*
%TO.C,D21*%
X197104000Y-84710000D03*
X197104000Y-88010000D03*
%TD*%
%TO.C,D20*%
X166497000Y-88137000D03*
X166497000Y-84837000D03*
%TD*%
D29*
%TO.C,D19*%
X144400000Y-72898000D03*
X147700000Y-72898000D03*
%TD*%
D28*
%TO.C,D18*%
X140081000Y-88137000D03*
X140081000Y-84837000D03*
%TD*%
%TO.C,D17*%
X181991000Y-84837000D03*
X181991000Y-88137000D03*
%TD*%
D30*
%TO.C,D16*%
X182634000Y-139842000D03*
X183634000Y-139842000D03*
X183134000Y-138542000D03*
%TD*%
%TO.C,D15*%
X162695000Y-139842000D03*
X163695000Y-139842000D03*
X163195000Y-138542000D03*
%TD*%
D29*
%TO.C,D14*%
X119729000Y-136902000D03*
X123029000Y-136902000D03*
%TD*%
D28*
%TO.C,D13*%
X114267000Y-126614000D03*
X114267000Y-123314000D03*
%TD*%
%TO.C,D12*%
X114267000Y-121788000D03*
X114267000Y-118488000D03*
%TD*%
D31*
%TO.C,D11*%
X145274000Y-130048000D03*
X143524000Y-130048000D03*
%TD*%
D32*
%TO.C,D10*%
X113447500Y-97155000D03*
X109056500Y-97155000D03*
%TD*%
D29*
%TO.C,D9*%
X132714000Y-114042000D03*
X129414000Y-114042000D03*
%TD*%
D31*
%TO.C,D8*%
X145274000Y-131826000D03*
X143524000Y-131826000D03*
%TD*%
D28*
%TO.C,D7*%
X122428000Y-107310000D03*
X122428000Y-104010000D03*
%TD*%
D33*
%TO.C,D6*%
X109093000Y-122079000D03*
X109093000Y-126079000D03*
%TD*%
%TO.C,D5*%
X105537000Y-126079000D03*
X105537000Y-122079000D03*
%TD*%
D34*
%TO.C,D4*%
X106775000Y-129667000D03*
X102775000Y-129667000D03*
%TD*%
%TO.C,D3*%
X102775000Y-133350000D03*
X106775000Y-133350000D03*
%TD*%
D23*
%TO.C,D2*%
X135587500Y-104587000D03*
X135587500Y-106487000D03*
X137462500Y-105537000D03*
%TD*%
D35*
%TO.C,D1*%
X118938000Y-78638000D03*
X120838000Y-78638000D03*
X119888000Y-76763000D03*
%TD*%
D36*
%TO.C,C27*%
X184023000Y-135408500D03*
X184023000Y-137133500D03*
%TD*%
%TO.C,C26*%
X164084000Y-135408500D03*
X164084000Y-137133500D03*
%TD*%
%TO.C,C25*%
X182372000Y-135408500D03*
X182372000Y-137133500D03*
%TD*%
%TO.C,C24*%
X162433000Y-135408500D03*
X162433000Y-137133500D03*
%TD*%
%TO.C,C23*%
X127381000Y-93117500D03*
X127381000Y-94842500D03*
%TD*%
%TO.C,C22*%
X135890000Y-93104500D03*
X135890000Y-94829500D03*
%TD*%
%TO.C,C21*%
X130556000Y-93205000D03*
X130556000Y-94930000D03*
%TD*%
%TO.C,C20*%
X120396000Y-93525000D03*
X120396000Y-95250000D03*
%TD*%
%TO.C,C19*%
X128905000Y-93117500D03*
X128905000Y-94842500D03*
%TD*%
%TO.C,C18*%
X118872000Y-95250000D03*
X118872000Y-93525000D03*
%TD*%
D37*
%TO.C,C17*%
X119842000Y-138934000D03*
X121392000Y-138934000D03*
%TD*%
%TO.C,C16*%
X139332000Y-122682000D03*
X137782000Y-122682000D03*
%TD*%
D38*
%TO.C,C15*%
X130696000Y-131314000D03*
X123746000Y-131314000D03*
%TD*%
D39*
%TO.C,C14*%
X119253000Y-99327000D03*
X119253000Y-97777000D03*
%TD*%
D37*
%TO.C,C13*%
X124854000Y-125349000D03*
X123304000Y-125349000D03*
%TD*%
D39*
%TO.C,C12*%
X124968000Y-117331000D03*
X124968000Y-118881000D03*
%TD*%
D40*
%TO.C,C11*%
X129299000Y-112010000D03*
X127749000Y-112010000D03*
%TD*%
%TO.C,C10*%
X110477000Y-99695000D03*
X112027000Y-99695000D03*
%TD*%
%TO.C,C9*%
X129032000Y-110486000D03*
X127482000Y-110486000D03*
%TD*%
D41*
%TO.C,C8*%
X114493000Y-102870000D03*
X116393000Y-102870000D03*
%TD*%
D37*
%TO.C,C7*%
X132829000Y-116074000D03*
X134379000Y-116074000D03*
%TD*%
D42*
%TO.C,C6*%
X136120000Y-110994000D03*
X133120000Y-110994000D03*
%TD*%
D37*
%TO.C,C4*%
X135154000Y-108200000D03*
X133604000Y-108200000D03*
%TD*%
D43*
%TO.C,C3*%
X116205000Y-82132500D03*
X116205000Y-83682500D03*
%TD*%
%TO.C,C2*%
X112903000Y-82132500D03*
X112903000Y-83682500D03*
%TD*%
%TO.C,C1*%
X137541000Y-93078000D03*
X137541000Y-94628000D03*
%TD*%
M02*
